# xmcd
#
# Track frame offsets: 
#        150
#        17690
#        36907
#        57426
#        74712
#        95157
#        121589
#        141831
#        183749
#        202499
#
# Disc length: 3469 seconds
#
# Revision: 0
# Processed by: cddbd v1.5.2PL0 Copyright (c) Steve Scherf et al.
# Submitted via: ExactAudioCopy v1.0b3
#
DISCID=a00d8b0a
DTITLE=Wes McGhee - Blue Blue Night
DYEAR=2005
DGENRE=Country
TTITLE0=Moon Over Ciudad Acuna
TTITLE1=Don't Let The Monkey Drive
TTITLE2=Blue Blue Night
TTITLE3=Ragged Annie
TTITLE4=The Ghost Of Dale Watkins
TTITLE5=Happy Anniversary
TTITLE6=Is Anybody There
TTITLE7=Al Andalus And You
TTITLE8=Shame On You Rosie
TTITLE9=Texas #2
EXTD=
EXTT0=
EXTT1=
EXTT2=
EXTT3=
EXTT4=
EXTT5=
EXTT6=
EXTT7=
EXTT8=
EXTT9=
PLAYORDER=
